<svg width="55" height="55" viewBox="0 0 55 55" fill="none" xmlns="http://www.w3.org/2000/svg">
<circle cx="27.5" cy="27.5" r="27.5" fill="#FBFBFB"/>
<path fill-rule="evenodd" clip-rule="evenodd" d="M17 11H21V13C21 13.2652 21.1054 13.5196 21.2929 13.7071C21.4804 13.8946 21.7348 14 22 14C22.2652 14 22.5196 13.8946 22.7071 13.7071C22.8946 13.5196 23 13.2652 23 13V11H31V13C31 13.2652 31.1054 13.5196 31.2929 13.7071C31.4804 13.8946 31.7348 14 32 14C32.2652 14 32.5196 13.8946 32.7071 13.7071C32.8946 13.5196 33 13.2652 33 13V11H34C34.7956 11 35.5587 11.3161 36.1213 11.8787C36.6839 12.4413 37 13.2044 37 14V38C37 38.7956 36.6839 39.5587 36.1213 40.1213C35.5587 40.6839 34.7956 41 34 41H17C16.2044 41 15.4413 40.6839 14.8787 40.1213C14.3161 39.5587 14 38.7956 14 38V14C14 13.2044 14.3161 12.4413 14.8787 11.8787C15.4413 11.3161 16.2044 11 17 11V11ZM19 21C18.7348 21 18.4804 21.1054 18.2929 21.2929C18.1054 21.4804 18 21.7348 18 22C18 22.2652 18.1054 22.5196 18.2929 22.7071C18.4804 22.8946 18.7348 23 19 23H32C32.2652 23 32.5196 22.8946 32.7071 22.7071C32.8946 22.5196 33 22.2652 33 22C33 21.7348 32.8946 21.4804 32.7071 21.2929C32.5196 21.1054 32.2652 21 32 21H19ZM18 27C18 26.7348 18.1054 26.4804 18.2929 26.2929C18.4804 26.1054 18.7348 26 19 26H26C26.2652 26 26.5196 26.1054 26.7071 26.2929C26.8946 26.4804 27 26.7348 27 27C27 27.2652 26.8946 27.5196 26.7071 27.7071C26.5196 27.8946 26.2652 28 26 28H19C18.7348 28 18.4804 27.8946 18.2929 27.7071C18.1054 27.5196 18 27.2652 18 27ZM19 31C18.7348 31 18.4804 31.1054 18.2929 31.2929C18.1054 31.4804 18 31.7348 18 32C18 32.2652 18.1054 32.5196 18.2929 32.7071C18.4804 32.8946 18.7348 33 19 33H30C30.2652 33 30.5196 32.8946 30.7071 32.7071C30.8946 32.5196 31 32.2652 31 32C31 31.7348 30.8946 31.4804 30.7071 31.2929C30.5196 31.1054 30.2652 31 30 31H19Z" fill="#F7A407"/>
<path fill-rule="evenodd" clip-rule="evenodd" d="M12 13V38C12 39.3261 12.5268 40.5979 13.4645 41.5355C14.4021 42.4732 15.6739 43 17 43H34V45H17C15.1435 45 13.363 44.2625 12.0503 42.9497C10.7375 41.637 10 39.8565 10 38V13H12ZM43 13C42.2044 13 41.4413 13.3161 40.8787 13.8787C40.3161 14.4413 40 15.2044 40 16V19H46V16C46 15.2044 45.6839 14.4413 45.1213 13.8787C44.5587 13.3161 43.7956 13 43 13ZM46 21H40V36L43 40L46 36V21ZM30 9C30.2652 9 30.5196 9.10536 30.7071 9.29289C30.8946 9.48043 31 9.73478 31 10V14C31 14.2652 30.8946 14.5196 30.7071 14.7071C30.5196 14.8946 30.2652 15 30 15C29.7348 15 29.4804 14.8946 29.2929 14.7071C29.1054 14.5196 29 14.2652 29 14V10C29 9.73478 29.1054 9.48043 29.2929 9.29289C29.4804 9.10536 29.7348 9 30 9V9ZM20 9C20.2652 9 20.5196 9.10536 20.7071 9.29289C20.8946 9.48043 21 9.73478 21 10V14C21 14.2652 20.8946 14.5196 20.7071 14.7071C20.5196 14.8946 20.2652 15 20 15C19.7348 15 19.4804 14.8946 19.2929 14.7071C19.1054 14.5196 19 14.2652 19 14V10C19 9.73478 19.1054 9.48043 19.2929 9.29289C19.4804 9.10536 19.7348 9 20 9V9Z" fill="#070500"/>
</svg>
