<svg width="158" height="48" viewBox="0 0 158 48" fill="none" xmlns="http://www.w3.org/2000/svg">
<path fill-rule="evenodd" clip-rule="evenodd" d="M13 8H17V10C17 10.2652 17.1054 10.5196 17.2929 10.7071C17.4804 10.8946 17.7348 11 18 11C18.2652 11 18.5196 10.8946 18.7071 10.7071C18.8946 10.5196 19 10.2652 19 10V8H27V10C27 10.2652 27.1054 10.5196 27.2929 10.7071C27.4804 10.8946 27.7348 11 28 11C28.2652 11 28.5196 10.8946 28.7071 10.7071C28.8946 10.5196 29 10.2652 29 10V8H30C30.7956 8 31.5587 8.31607 32.1213 8.87868C32.6839 9.44129 33 10.2044 33 11V35C33 35.7956 32.6839 36.5587 32.1213 37.1213C31.5587 37.6839 30.7956 38 30 38H13C12.2044 38 11.4413 37.6839 10.8787 37.1213C10.3161 36.5587 10 35.7956 10 35V11C10 10.2044 10.3161 9.44129 10.8787 8.87868C11.4413 8.31607 12.2044 8 13 8V8ZM15 18C14.7348 18 14.4804 18.1054 14.2929 18.2929C14.1054 18.4804 14 18.7348 14 19C14 19.2652 14.1054 19.5196 14.2929 19.7071C14.4804 19.8946 14.7348 20 15 20H28C28.2652 20 28.5196 19.8946 28.7071 19.7071C28.8946 19.5196 29 19.2652 29 19C29 18.7348 28.8946 18.4804 28.7071 18.2929C28.5196 18.1054 28.2652 18 28 18H15ZM14 24C14 23.7348 14.1054 23.4804 14.2929 23.2929C14.4804 23.1054 14.7348 23 15 23H22C22.2652 23 22.5196 23.1054 22.7071 23.2929C22.8946 23.4804 23 23.7348 23 24C23 24.2652 22.8946 24.5196 22.7071 24.7071C22.5196 24.8946 22.2652 25 22 25H15C14.7348 25 14.4804 24.8946 14.2929 24.7071C14.1054 24.5196 14 24.2652 14 24ZM15 28C14.7348 28 14.4804 28.1054 14.2929 28.2929C14.1054 28.4804 14 28.7348 14 29C14 29.2652 14.1054 29.5196 14.2929 29.7071C14.4804 29.8946 14.7348 30 15 30H26C26.2652 30 26.5196 29.8946 26.7071 29.7071C26.8946 29.5196 27 29.2652 27 29C27 28.7348 26.8946 28.4804 26.7071 28.2929C26.5196 28.1054 26.2652 28 26 28H15Z" fill="#F7A407"/>
<path fill-rule="evenodd" clip-rule="evenodd" d="M8 10V35C8 36.3261 8.52678 37.5979 9.46447 38.5355C10.4021 39.4732 11.6739 40 13 40H30V42H13C11.1435 42 9.36301 41.2625 8.05025 39.9497C6.7375 38.637 6 36.8565 6 35V10H8ZM39 10C38.2044 10 37.4413 10.3161 36.8787 10.8787C36.3161 11.4413 36 12.2044 36 13V16H42V13C42 12.2044 41.6839 11.4413 41.1213 10.8787C40.5587 10.3161 39.7956 10 39 10ZM42 18H36V33L39 37L42 33V18ZM26 6C26.2652 6 26.5196 6.10536 26.7071 6.29289C26.8946 6.48043 27 6.73478 27 7V11C27 11.2652 26.8946 11.5196 26.7071 11.7071C26.5196 11.8946 26.2652 12 26 12C25.7348 12 25.4804 11.8946 25.2929 11.7071C25.1054 11.5196 25 11.2652 25 11V7C25 6.73478 25.1054 6.48043 25.2929 6.29289C25.4804 6.10536 25.7348 6 26 6V6ZM16 6C16.2652 6 16.5196 6.10536 16.7071 6.29289C16.8946 6.48043 17 6.73478 17 7V11C17 11.2652 16.8946 11.5196 16.7071 11.7071C16.5196 11.8946 16.2652 12 16 12C15.7348 12 15.4804 11.8946 15.2929 11.7071C15.1054 11.5196 15 11.2652 15 11V7C15 6.73478 15.1054 6.48043 15.2929 6.29289C15.4804 6.10536 15.7348 6 16 6V6Z" fill="#070500"/>
<path d="M53.624 32.312C52.296 32.312 51.088 32.088 50 31.64C48.928 31.176 48.008 30.544 47.24 29.744C46.488 28.944 45.904 28.016 45.488 26.96C45.072 25.904 44.864 24.776 44.864 23.576C44.864 22.376 45.072 21.256 45.488 20.216C45.904 19.16 46.488 18.232 47.24 17.432C48.008 16.632 48.928 16.008 50 15.56C51.088 15.112 52.296 14.888 53.624 14.888C54.968 14.888 56.176 15.112 57.248 15.56C58.32 16.008 59.24 16.632 60.008 17.432C60.776 18.232 61.368 19.16 61.784 20.216C62.2 21.256 62.408 22.376 62.408 23.576C62.408 24.776 62.2 25.904 61.784 26.96C61.368 28.016 60.776 28.944 60.008 29.744C59.24 30.544 58.32 31.176 57.248 31.64C56.176 32.088 54.968 32.312 53.624 32.312ZM53.624 29.768C54.472 29.768 55.256 29.616 55.976 29.312C56.696 29.008 57.32 28.576 57.848 28.016C58.392 27.44 58.808 26.776 59.096 26.024C59.384 25.272 59.528 24.456 59.528 23.576C59.528 22.696 59.384 21.88 59.096 21.128C58.808 20.376 58.392 19.728 57.848 19.184C57.32 18.624 56.696 18.192 55.976 17.888C55.256 17.568 54.472 17.408 53.624 17.408C52.776 17.408 51.992 17.568 51.272 17.888C50.568 18.192 49.944 18.624 49.4 19.184C48.872 19.728 48.456 20.376 48.152 21.128C47.864 21.88 47.72 22.696 47.72 23.576C47.72 24.472 47.864 25.296 48.152 26.048C48.456 26.784 48.872 27.44 49.4 28.016C49.944 28.576 50.568 29.008 51.272 29.312C51.992 29.616 52.776 29.768 53.624 29.768ZM64.8256 32V23.24C64.8256 22.152 65.1296 21.304 65.7376 20.696C66.3616 20.072 67.2176 19.76 68.3056 19.76H71.2576V22.112H68.8096C68.4256 22.112 68.1216 22.224 67.8976 22.448C67.6896 22.672 67.5856 22.976 67.5856 23.36V32H64.8256ZM75.0196 36.872V34.52H81.1636C81.5796 34.52 81.8996 34.392 82.1236 34.136C82.3636 33.88 82.4836 33.56 82.4836 33.176V30.008H82.4596C82.1076 30.44 81.7316 30.816 81.3316 31.136C80.9316 31.44 80.4756 31.68 79.9636 31.856C79.4676 32.016 78.9156 32.096 78.3076 32.096C77.1876 32.096 76.1876 31.832 75.3076 31.304C74.4276 30.776 73.7316 30.04 73.2196 29.096C72.7236 28.136 72.4756 27.04 72.4756 25.808C72.4756 24.608 72.7236 23.536 73.2196 22.592C73.7316 21.632 74.4596 20.872 75.4036 20.312C76.3476 19.752 77.4996 19.472 78.8596 19.472C80.1556 19.472 81.2756 19.744 82.2196 20.288C83.1796 20.832 83.9236 21.6 84.4516 22.592C84.9796 23.568 85.2436 24.712 85.2436 26.024V33.296C85.2436 34.4 84.9236 35.272 84.2836 35.912C83.6436 36.552 82.7716 36.872 81.6676 36.872H75.0196ZM78.8356 29.744C79.5716 29.744 80.2036 29.576 80.7316 29.24C81.2756 28.888 81.6916 28.424 81.9796 27.848C82.2836 27.256 82.4356 26.6 82.4356 25.88C82.4356 25.112 82.2916 24.424 82.0036 23.816C81.7156 23.208 81.2996 22.728 80.7556 22.376C80.2276 22.008 79.5876 21.824 78.8356 21.824C78.0996 21.824 77.4596 22.008 76.9156 22.376C76.3876 22.728 75.9796 23.208 75.6916 23.816C75.4036 24.408 75.2596 25.08 75.2596 25.832C75.2596 26.552 75.4036 27.208 75.6916 27.8C75.9796 28.392 76.3876 28.864 76.9156 29.216C77.4596 29.568 78.0996 29.744 78.8356 29.744ZM93.4209 32.288C92.2529 32.288 91.2449 32 90.3969 31.424C89.5489 30.848 88.8929 30.08 88.4289 29.12C87.9809 28.144 87.7569 27.072 87.7569 25.904C87.7569 24.688 88.0129 23.6 88.5249 22.64C89.0529 21.664 89.7969 20.896 90.7569 20.336C91.7329 19.76 92.8929 19.472 94.2369 19.472C95.5649 19.472 96.6929 19.76 97.6209 20.336C98.5649 20.896 99.2849 21.664 99.7809 22.64C100.293 23.6 100.549 24.672 100.549 25.856V32H97.7889V29.72H97.7409C97.5009 30.168 97.1889 30.592 96.8049 30.992C96.4209 31.376 95.9489 31.688 95.3889 31.928C94.8289 32.168 94.1729 32.288 93.4209 32.288ZM94.1649 29.936C94.8849 29.936 95.5089 29.76 96.0369 29.408C96.5809 29.04 97.0049 28.552 97.3089 27.944C97.6129 27.32 97.7569 26.624 97.7409 25.856C97.7409 25.088 97.5969 24.408 97.3089 23.816C97.0209 23.208 96.6129 22.728 96.0849 22.376C95.5569 22.008 94.9249 21.824 94.1889 21.824C93.4209 21.824 92.7649 22.008 92.2209 22.376C91.6769 22.728 91.2609 23.208 90.9729 23.816C90.6849 24.424 90.5409 25.112 90.5409 25.88C90.5409 26.632 90.6849 27.32 90.9729 27.944C91.2609 28.552 91.6689 29.04 92.1969 29.408C92.7409 29.76 93.3969 29.936 94.1649 29.936ZM103.851 32V24.944C103.851 23.888 104.091 22.952 104.571 22.136C105.051 21.304 105.731 20.656 106.611 20.192C107.491 19.712 108.523 19.472 109.707 19.472C110.891 19.472 111.915 19.712 112.779 20.192C113.659 20.656 114.339 21.304 114.819 22.136C115.299 22.952 115.539 23.888 115.539 24.944V32H112.803V24.968C112.803 24.344 112.659 23.8 112.371 23.336C112.083 22.856 111.699 22.488 111.219 22.232C110.755 21.96 110.243 21.824 109.683 21.824C109.139 21.824 108.627 21.96 108.147 22.232C107.683 22.488 107.307 22.856 107.019 23.336C106.747 23.8 106.611 24.344 106.611 24.968V32H103.851ZM118.851 32V19.76H121.611V32H118.851ZM120.219 18.056C119.739 18.056 119.323 17.88 118.971 17.528C118.619 17.176 118.443 16.76 118.443 16.28C118.443 15.8 118.619 15.384 118.971 15.032C119.323 14.68 119.739 14.504 120.219 14.504C120.715 14.504 121.131 14.68 121.467 15.032C121.819 15.384 121.995 15.8 121.995 16.28C121.995 16.76 121.819 17.176 121.467 17.528C121.131 17.88 120.715 18.056 120.219 18.056ZM126.914 32C126.386 32 125.914 31.872 125.498 31.616C125.082 31.36 124.746 31.016 124.49 30.584C124.25 30.152 124.13 29.68 124.13 29.168C124.13 28.656 124.258 28.192 124.514 27.776C124.77 27.36 125.122 27 125.57 26.696L130.898 23.216C131.058 23.136 131.154 23.048 131.186 22.952C131.234 22.856 131.258 22.76 131.258 22.664C131.258 22.52 131.202 22.392 131.09 22.28C130.994 22.168 130.858 22.112 130.682 22.112H124.73V19.76H131.498C132.026 19.76 132.49 19.888 132.89 20.144C133.306 20.4 133.634 20.744 133.874 21.176C134.13 21.608 134.258 22.08 134.258 22.592C134.258 23.104 134.13 23.568 133.874 23.984C133.618 24.4 133.266 24.76 132.818 25.064L127.514 28.544C127.37 28.624 127.266 28.712 127.202 28.808C127.154 28.904 127.13 29 127.13 29.096C127.13 29.24 127.186 29.368 127.298 29.48C127.41 29.592 127.554 29.648 127.73 29.648H134.018V32H126.914ZM143.301 32C141.925 32 140.717 31.744 139.677 31.232C138.653 30.704 137.853 29.984 137.277 29.072C136.701 28.144 136.413 27.08 136.413 25.88C136.413 24.616 136.669 23.504 137.181 22.544C137.693 21.584 138.397 20.832 139.293 20.288C140.189 19.744 141.221 19.472 142.389 19.472C143.701 19.472 144.781 19.752 145.629 20.312C146.477 20.872 147.101 21.624 147.501 22.568C147.917 23.512 148.125 24.568 148.125 25.736C148.125 25.896 148.117 26.08 148.101 26.288C148.085 26.496 148.061 26.656 148.029 26.768H139.341C139.437 27.408 139.669 27.944 140.037 28.376C140.405 28.792 140.869 29.112 141.429 29.336C141.989 29.544 142.613 29.648 143.301 29.648H146.589V32H143.301ZM139.317 24.896H145.365C145.349 24.592 145.301 24.288 145.221 23.984C145.157 23.68 145.045 23.392 144.885 23.12C144.741 22.848 144.549 22.616 144.309 22.424C144.085 22.216 143.813 22.056 143.493 21.944C143.173 21.816 142.805 21.752 142.389 21.752C141.909 21.752 141.485 21.848 141.117 22.04C140.749 22.216 140.437 22.456 140.181 22.76C139.925 23.048 139.725 23.384 139.581 23.768C139.453 24.136 139.365 24.512 139.317 24.896ZM150.607 32V23.24C150.607 22.152 150.911 21.304 151.519 20.696C152.143 20.072 152.999 19.76 154.087 19.76H157.039V22.112H154.591C154.207 22.112 153.903 22.224 153.679 22.448C153.471 22.672 153.367 22.976 153.367 23.36V32H150.607Z" fill="#070500"/>
</svg>
